HIERARCHY
ROOT hip
{
	OFFSET 0.000000 0.000000 0.000000 
	CHANNELS 6 Xposition Yposition Zposition Xrotation Zrotation Yrotation
	JOINT abdomen
	{
		OFFSET 0.000000 3.402643 0.000000 
		CHANNELS 3 Xrotation Zrotation Yrotation
		JOINT chest
		{
			OFFSET 0.000000 8.438565 -0.680529 
			CHANNELS 3 Xrotation Zrotation Yrotation
			JOINT neck
			{
				OFFSET 0.000000 10.207942 -0.272212 
				CHANNELS 3 Xrotation Zrotation Yrotation
				JOINT head
				{
					OFFSET 0.000000 3.130431 0.000000 
					CHANNELS 3 Xrotation Zrotation Yrotation
					End Site
					{
						OFFSET 0.000000 3.130435 0.000000 
					}
				}
			}
			JOINT lCollar
			{
				OFFSET 3.470700 6.669187 -0.816635 
				CHANNELS 3 Yrotation Zrotation Xrotation
				JOINT lShldr
				{
					OFFSET 3.198488 0.000000 0.000000 
					CHANNELS 3 Zrotation Yrotation Xrotation
					JOINT lForeArm
					{
						OFFSET 10.139888 0.000000 0.000000 
						CHANNELS 3 Yrotation Zrotation Xrotation
						JOINT lHand
						{
							OFFSET 8.370511 0.000000 0.000000 
							CHANNELS 3 Zrotation Yrotation Xrotation
							End Site
							{
								OFFSET 4.083176 0.000000 0.000000 
							}
						}
					}
				}
			}
			JOINT rCollar
			{
				OFFSET -3.470700 6.669187 -0.816635 
				CHANNELS 3 Yrotation Zrotation Xrotation
				JOINT rShldr
				{
					OFFSET -3.198488 0.000000 0.000000 
					CHANNELS 3 Zrotation Yrotation Xrotation
					JOINT rForeArm
					{
						OFFSET -10.139888 0.000000 0.000000 
						CHANNELS 3 Yrotation Zrotation Xrotation
						JOINT rHand
						{
							OFFSET -8.370511 0.000000 0.000000 
							CHANNELS 3 Zrotation Yrotation Xrotation
							End Site
							{
								OFFSET -4.083176 0.000000 0.000000 
							}
						}
					}
				}
			}
		}
	}
	JOINT lThigh
	{
		OFFSET 5.308129 -1.633274 1.361059 
		CHANNELS 3 Xrotation Zrotation Yrotation
		JOINT lShin
		{
			OFFSET -2.041588 -20.007561 0.000000 
			CHANNELS 3 Xrotation Zrotation Yrotation
			JOINT lFoot
			{
				OFFSET 0.000000 -19.190928 -1.224953 
				CHANNELS 3 Xrotation Yrotation Zrotation
				End Site
				{
					OFFSET 0.000000 -2.449906 4.627600 
				}
			}
		}
	}
	JOINT rThigh
	{
		OFFSET -5.308129 -1.633274 1.361059 
		CHANNELS 3 Xrotation Zrotation Yrotation
		JOINT rShin
		{
			OFFSET 2.041588 -20.007561 0.000000 
			CHANNELS 3 Xrotation Zrotation Yrotation
			JOINT rFoot
			{
				OFFSET 0.000000 -19.190928 -1.224953 
				CHANNELS 3 Xrotation Yrotation Zrotation
				End Site
				{
					OFFSET 0.000000 -2.449906 4.627600 
				}
			}
		}
	}
}
MOTION
Frames: 13
Frame Time: 0.016667
-38.564960 48.825127 12.653403 -9.754125 17.138245 8.436038 0.000000 0.000000 0.000000 31.994669 -12.009418 -1.139711 -6.734172 8.563960 20.621904 -6.031453 -1.680912 23.721594 -2.835481 9.287701 1.887622 -77.758545 -14.170488 -18.826656 -33.370964 -0.850570 2.699430 16.214996 -9.458618 -2.456727 3.653614 -10.352056 1.953955 60.749077 -4.542457 -3.075991 50.143074 0.675711 2.930699 8.753259 14.445594 15.226242 -10.905828 17.777582 9.502042 33.448132 -3.389726 0.406537 28.525679 0.006047 0.619877 -12.196156 -22.711107 -12.188639 52.828445 2.198606 -5.473224 -15.128800 0.561235 -0.005317 
-38.546661 49.012928 12.654340 -10.548198 17.376936 8.281189 0.000000 0.000000 0.000000 32.668064 -11.862717 -1.199039 -6.704742 8.581145 20.642641 -5.846867 -1.831800 23.801750 -2.850023 9.285928 1.916484 -78.232574 -13.870820 -18.658264 -33.752987 -0.840297 2.703787 15.543380 -9.189142 -2.284109 3.648854 -10.340759 1.982736 59.663418 -3.873720 -3.369028 49.682087 0.683198 2.927104 9.337960 14.538145 15.441509 -10.975801 17.527306 8.962674 38.919514 -3.074623 -1.874867 28.947062 -0.451313 -0.953473 -10.907857 -22.790379 -12.739721 51.878666 2.254899 -5.504810 -14.721590 0.634229 -0.803128 
-38.474422 49.060432 12.689013 -10.826779 17.593378 8.200387 0.000000 0.000000 0.000000 32.704044 -11.813940 -1.187474 -6.767056 8.410454 20.238110 -5.628933 -1.865111 23.343050 -2.850023 9.285928 1.916484 -78.755035 -14.143327 -18.961132 -33.058132 -0.844683 2.692720 15.177527 -9.384377 -0.957859 3.639099 -10.341092 1.982756 59.080391 -3.461670 -3.721814 49.652431 0.684014 2.922544 9.175996 14.059584 15.852864 -9.498892 16.496092 9.040201 39.974731 -3.084859 -6.966138 36.064610 -1.614469 -3.990211 -10.165261 -23.052746 -13.498054 51.393864 2.286915 -5.398962 -15.040996 0.621067 -1.534889 
-38.402222 49.107784 12.723786 -11.104325 17.799784 8.126041 0.000000 0.000000 0.000000 32.732101 -11.755360 -1.187472 -6.831783 8.247064 19.843382 -5.397275 -1.889355 22.893789 -2.859781 9.285604 1.916470 -79.276527 -14.414350 -19.249313 -32.363159 -0.854833 2.689136 14.803761 -9.562808 0.355228 3.639099 -10.341092 1.982756 58.486683 -3.058100 -4.083437 49.613117 0.676900 2.912233 9.012824 13.603111 16.269880 -8.015826 15.473436 9.101561 41.013546 -3.017990 -12.069949 43.116230 -3.113338 -6.866178 -9.393496 -23.302603 -14.264864 50.870968 2.313035 -5.317143 -15.372883 0.627825 -2.235624 
-38.333321 49.138233 12.769973 -10.599953 17.625343 8.129385 0.000000 0.000000 0.000000 31.884188 -11.482404 -1.076345 -6.897206 8.190743 19.681957 -4.867136 -2.124935 22.789846 -2.865406 9.306268 1.887577 -79.394119 -13.803073 -18.586813 -32.167267 -0.859971 2.686666 14.369461 -9.218610 0.007213 3.621555 -10.324374 1.942671 58.229774 -2.548216 -4.603750 49.427090 0.679554 2.916941 9.120914 13.905350 16.899195 -6.843878 13.910367 8.934578 40.856892 -3.055712 -17.023979 49.046547 -5.147112 -9.881598 -9.257083 -23.019632 -14.376606 49.959774 2.372987 -5.598927 -16.377207 0.585626 -2.294161 
-38.264473 49.168705 12.815757 -10.084208 17.440823 8.142094 0.000000 0.000000 0.000000 31.029352 -11.199590 -0.976739 -6.947829 8.142950 19.531591 -4.341740 -2.352026 22.676176 -2.859331 9.317979 1.847496 -79.510979 -13.199214 -17.928185 -31.971378 -0.865147 2.684129 13.930036 -8.883039 -0.335735 3.606140 -10.316785 1.913924 57.960594 -2.039006 -5.120672 49.250874 0.675312 2.914621 9.231834 14.210014 17.510872 -5.702537 12.350675 8.733997 40.742844 -3.126163 -21.928505 54.850189 -7.425695 -12.644259 -9.140201 -22.728743 -14.485085 49.049652 2.421386 -5.904837 -17.381287 0.530891 -2.350040 
-38.200409 49.200478 12.818149 -8.990220 16.882414 8.301196 0.000000 0.000000 0.000000 29.599953 -10.643530 -0.796667 -7.036747 8.105180 19.361925 -3.932043 -2.238685 22.439688 -2.870172 9.349579 1.788133 -79.490685 -12.237046 -17.314663 -31.795452 -0.861517 2.680957 13.258141 -8.580212 -0.506340 3.573246 -10.292414 1.843341 57.911594 -1.602662 -5.407128 49.427090 0.679554 2.916941 9.333934 14.398411 17.148338 -7.047190 11.281070 8.110562 44.980263 -2.863775 -21.078823 53.302593 -7.006779 -13.221260 -9.666577 -22.003044 -14.096616 48.040607 2.489081 -6.452782 -18.136829 0.483305 -2.146349 
-38.135895 49.232204 12.820101 -7.910712 16.314665 8.458317 0.000000 0.000000 0.000000 28.175859 -10.087303 -0.626249 -7.128658 8.058023 19.192257 -3.533427 -2.124761 22.213053 -2.880651 9.371449 1.728772 -79.467102 -11.287221 -16.692007 -31.619076 -0.867679 2.677730 12.604218 -8.282563 -0.687262 3.542491 -10.277136 1.784091 57.850822 -1.167830 -5.693992 49.613117 0.676900 2.912233 9.426066 14.582655 16.767532 -8.394117 10.208003 7.505047 49.262020 -2.648481 -20.184311 51.723808 -6.552605 -13.747099 -10.214120 -21.284386 -13.703918 47.050938 2.537158 -6.989091 -18.901752 0.434557 -1.943084 
-38.021385 49.257996 12.774547 -7.273013 15.507127 8.821546 0.000000 0.000000 0.000000 27.312237 -9.013355 -0.484846 -7.223414 7.931694 18.731596 -3.534086 -2.104716 21.733837 -2.914709 9.421079 1.690222 -79.819351 -10.672703 -15.911947 -30.767683 -0.876113 2.668325 12.760717 -8.564083 -0.873141 3.504637 -10.231617 1.744037 57.510338 -1.024783 -5.556368 50.505211 0.685224 2.933369 8.086340 14.064953 15.028595 -10.717027 9.505594 6.385341 55.725540 -2.005752 -16.418934 46.883324 -4.911746 -11.454261 -10.448162 -20.316946 -13.292349 46.164024 2.586198 -7.897757 -19.129923 0.352754 -1.668074 
-37.906734 49.283726 12.728346 -6.638554 14.700903 9.171788 0.000000 0.000000 0.000000 26.467833 -7.949050 -0.375631 -7.319039 7.794801 18.271017 -3.535142 -2.084344 21.254625 -2.940566 9.470536 1.661318 -80.152191 -10.055668 -15.135036 -29.926046 -0.885647 2.657479 12.909081 -8.854413 -1.061051 3.466849 -10.186054 1.705709 57.169273 -0.883090 -5.406957 51.407551 0.678122 2.944155 6.772013 13.519092 13.313254 -13.001225 8.774023 5.299981 62.210079 -1.782238 -12.597913 42.034157 -3.485205 -8.994444 -10.682471 -19.360802 -12.895026 45.276726 2.625332 -8.791785 -19.338266 0.302063 -1.396911 
-37.777802 49.302357 12.611619 -6.633141 14.215110 9.492996 0.000000 0.000000 0.000000 26.564159 -6.992069 -0.335506 -7.402864 7.579909 17.639666 -3.853333 -2.193454 20.640594 -2.972914 9.518000 1.670894 -80.544281 -9.748812 -13.870604 -29.456226 -0.893280 2.652905 12.995528 -8.841628 -0.992773 3.426340 -10.138391 1.704046 56.956249 -0.852892 -5.238033 52.535973 0.673725 2.966415 5.529774 13.598881 10.985710 -14.309012 7.134293 4.801790 67.589920 -1.285446 -10.452017 39.476902 -1.696530 -4.699734 -10.624574 -18.924383 -12.961302 44.912037 2.639492 -9.250822 -19.083212 0.254188 -1.446642 
-37.648869 49.320564 12.494493 -6.618749 13.728946 9.836190 0.000000 0.000000 0.000000 26.661831 -6.035077 -0.295452 -7.482874 7.362843 17.000158 -4.168880 -2.303266 20.016514 -3.013106 9.555923 1.670835 -80.932800 -9.434077 -12.602727 -28.986404 -0.901091 2.647995 13.073626 -8.827032 -0.932351 3.395885 -10.100203 1.704093 56.733200 -0.816983 -5.061103 53.684254 0.662832 2.981173 4.299061 13.622141 8.678834 -15.589170 5.485521 4.362839 72.971970 -0.993347 -8.286937 36.845303 -0.116230 -0.347865 -10.575350 -18.473644 -12.996450 44.548199 2.655560 -9.727473 -18.828697 0.195305 -1.435594 
-37.518681 49.293064 12.333604 -6.417879 13.308652 10.691171 0.000000 0.000000 0.000000 26.749624 -4.941361 -0.245757 -7.634150 6.907509 15.851331 -4.822039 -2.752546 18.957888 -3.045478 9.603370 1.680404 -81.096489 -9.377478 -10.673146 -28.878633 -0.905881 2.650742 12.004509 -8.961398 -0.961833 3.366864 -10.051680 1.713737 56.289852 -1.366576 -5.148971 55.077805 0.673973 3.010885 3.561990 13.463641 6.940007 -15.887096 3.837431 4.589195 75.522339 -0.788650 -7.401370 39.639893 0.586849 1.323556 -10.878856 -18.270710 -13.502295 44.650623 2.644332 -10.307202 -18.324259 0.085530 -1.686220 
